#!OML:ASF E:\acrobat2\Project_11_07_03\Capture day 1\Session 1\Acrobat.ASF
:FULLY-SPECIFIED
:DEGREES
1
root 6.15487 18.2025 3.9696 3.28067 0.325797 0.720747
lowerback -7.01977 1.13465 0.410583
upperback -2.06851 1.51174 -1.36857
thorax 1.84809 0.753854 -1.51075
lowerneck 3.25819 -2.35832 -4.26399
upperneck 2.87054 -3.38617 6.96671
head 0.549659 -1.72437 2.97985
rclavicle -1.27719e-014 2.06736e-014
rhumerus -35.9437 -8.41062 -85.5739
rradius 30.0865
rwrist 1.71563
rhand -8.36107 -39.0325
rfingers 7.12502
rthumb 17.5614 -68.2593
lclavicle -1.27719e-014 2.06736e-014
lhumerus -27.3253 -5.13618 90.1324
lradius 22.9515
lwrist 8.11134
lhand -1.17366 -14.4831
lfingers 7.12502
lthumb 24.4657 13.9744
rfemur 6.77044 12.0399 18.588
rtibia -3.28048
rfoot -17.6018 -23.5934
rtoes 3.30047
lfemur 3.10779 -0.652892 -13.0804
ltibia 0.425246
lfoot -12.8014 -5.23408
ltoes -7.88927
2
root 6.16685 18.2002 3.97023 3.28453 -0.00587441 0.495814
lowerback -7.17601 1.28669 0.814893
upperback -2.00489 1.68638 -1.38861
thorax 2.01771 0.842853 -1.7393
lowerneck 3.35987 -2.37908 -3.98155
upperneck 2.58551 -3.39259 6.87384
head 0.434766 -1.72938 2.89853
rclavicle -9.49197e-015 5.1684e-015
rhumerus -35.5965 -7.57689 -86.2095
rradius 29.2414
rwrist 2.34588
rhand -8.13446 -39.1718
rfingers 7.12502
rthumb 17.7795 -68.379
lclavicle -9.49197e-015 5.1684e-015
lhumerus -27.2542 -6.05269 90.2622
lradius 22.8122
lwrist 8.78191
lhand 0.0497974 -14.7587
lfingers 7.12502
lthumb 25.6381 13.5352
rfemur 6.64963 12.1918 18.7889
rtibia -3.15117
rfoot -17.4725 -23.4096
rtoes 3.29892
lfemur 3.15555 -0.451509 -12.7865
ltibia 0.400144
lfoot -12.8131 -5.66698
ltoes -7.03153
3
root 6.18021 18.2001 3.97782 3.29054 -0.296899 0.636313
lowerback -7.36949 1.33679 0.818444
upperback -1.96041 1.75417 -1.45218
thorax 2.17566 0.877767 -1.79592
lowerneck 3.30985 -2.32599 -3.98967
upperneck 2.60514 -3.32316 6.97344
head 0.447567 -1.69367 2.93287
rclavicle 7.47927e-015 2.06736e-014
rhumerus -35.2231 -6.61752 -86.8201
rradius 28.2757
rwrist 3.10988
rhand -7.9089 -39.1234
rfingers 7.12502
rthumb 17.9965 -68.3108
lclavicle 7.47927e-015 2.06736e-014
lhumerus -27.4412 -6.53889 90.3429
lradius 22.9681
lwrist 9.04309
lhand 1.29108 -14.651
lfingers 7.12502
lthumb 26.8264 13.4661
rfemur 6.5357 11.9937 18.4842
rtibia -3.02126
rfoot -17.2128 -23.013
rtoes 2.99764
lfemur 3.23848 -0.283362 -13.004
ltibia 0.367685
lfoot -12.4905 -5.87303
ltoes -5.76388
4
root 6.19266 18.1988 3.98827 3.28686 -0.562259 0.897052
lowerback -7.57615 1.38732 0.700486
upperback -1.91645 1.83337 -1.56406
thorax 2.33887 0.91794 -1.83242
lowerneck 3.3227 -2.30637 -3.96486
upperneck 2.55807 -3.2955 7.05838
head 0.429927 -1.68032 2.95753
rclavicle 1.08586e-014 -6.75868e-015
rhumerus -34.8583 -5.90223 -87.3276
rradius 27.2818
rwrist 4.15539
rhand -7.65345 -38.9635
rfingers 7.12502
rthumb 18.2423 -68.1281
lclavicle 1.08586e-014 -6.75868e-015
lhumerus -27.6978 -6.78506 90.3052
lradius 23.1015
lwrist 8.98657
lhand 2.56836 -14.5679
lfingers 7.12502
lthumb 28.048 13.3556
rfemur 6.44916 11.8344 18.0476
rtibia -2.91097
rfoot -17.0553 -22.67
rtoes 2.58584
lfemur 3.37493 -0.300722 -13.4016
ltibia 0.253931
lfoot -11.314 -5.91959
ltoes 2.14538
5
root 6.20364 18.1964 3.99704 3.29458 -0.769915 0.905087
lowerback -7.70203 1.45902 0.823505
upperback -1.93718 1.9201 -1.61085
thorax 2.39626 0.961896 -1.9388
lowerneck 3.45676 -2.32317 -3.94638
upperneck 2.44911 -3.31634 7.14333
head 0.374706 -1.69416 2.98577
rclavicle 4.67144e-015 -5.56597e-015
rhumerus -34.7101 -5.34758 -87.764
rradius 26.4588
rwrist 5.1655
rhand -7.40028 -38.8298
rfingers 7.12502
rthumb 18.4858 -67.9715
lclavicle 4.67144e-015 -5.56597e-015
lhumerus -28.0515 -6.85708 90.2195
lradius 23.1184
lwrist 8.86416
lhand 3.77185 -14.7578
lfingers 7.12502
lthumb 29.1979 12.9718
rfemur 6.37843 11.9985 18.0018
rtibia -2.80439
rfoot -17.1483 -22.5417
rtoes 3.57349
lfemur 3.52196 -0.532733 -13.4862
ltibia 0.0666972
lfoot -8.91878 -5.73064
ltoes 22.5152
6
root 6.21343 18.1936 4.00802 3.34249 -0.878809 0.817307
lowerback -7.81965 1.47571 1.00042
upperback -2.02123 1.92656 -1.58852
thorax 2.37998 0.965109 -2.01294
lowerneck 3.44325 -2.30375 -4.01396
upperneck 2.57586 -3.30024 7.23851
head 0.419302 -1.68517 3.02986
rclavicle -5.66536e-015 4.37326e-015
rhumerus -34.814 -4.69014 -88.1852
rradius 25.8171
rwrist 5.88851
rhand -7.17516 -38.7855
rfingers 7.12502
rthumb 18.7024 -67.9064
lclavicle -5.66536e-015 4.37326e-015
lhumerus -28.5131 -6.48963 90.0924
lradius 23.1168
lwrist 8.55481
lhand 4.92521 -14.747
lfingers 7.12502
lthumb 30.2986 12.7858
rfemur 6.3394 12.231 18.1083
rtibia -2.74561
rfoot -17.3211 -22.5043
rtoes 5.96636
lfemur 3.64472 -0.846962 -13.4691
ltibia -0.167697
lfoot -8.38805 -4.51683
ltoes 23.3368
7
root 6.22268 18.1878 4.02311 3.38771 -0.904567 0.700459
lowerback -8.00558 1.48021 1.17161
upperback -2.08004 1.91578 -1.53154
thorax 2.42548 0.960178 -2.04783
lowerneck 3.2476 -2.32719 -3.87891
upperneck 2.87469 -3.3351 7.04728
head 0.543923 -1.69474 2.9347
rclavicle -3.2551e-015 3.97569e-015
rhumerus -34.9959 -4.04618 -88.5438
rradius 25.2657
rwrist 6.23823
rhand -6.90356 -38.7494
rfingers 7.12502
rthumb 18.9636 -67.845
lclavicle -3.2551e-015 3.97569e-015
lhumerus -28.9631 -6.06299 90.0404
lradius 22.9004
lwrist 7.70805
lhand 5.42762 -14.831
lfingers 7.12502
lthumb 30.7778 12.6126
rfemur 6.36355 12.3725 18.2593
rtibia -2.69958
rfoot -17.4437 -22.6023
rtoes 6.78121
lfemur 3.81909 -1.34057 -13.4675
ltibia -0.525138
lfoot -8.08726 -3.40745
ltoes 23.6289
8
root 6.23407 18.1831 4.03808 3.36523 -0.90928 0.566908
lowerback -8.10717 1.48826 1.34699
upperback -2.11535 1.90856 -1.44089
thorax 2.44751 0.957045 -2.05158
lowerneck 3.0306 -2.41684 -3.75847
upperneck 3.26989 -3.46013 6.72911
head 0.705275 -1.74884 2.7992
rclavicle -7.45443e-017 1.96797e-014
rhumerus -35.2664 -3.52449 -88.7896
rradius 24.9901
rwrist 6.43823
rhand -5.95444 -38.509
rfingers 7.12502
rthumb 19.8762 -67.5126
lclavicle -7.45443e-017 1.96797e-014
lhumerus -29.3786 -5.84325 90.1381
lradius 22.3661
lwrist 6.62784
lhand 5.1772 -15.338
lfingers 7.12502
lthumb 30.539 12.1503
rfemur 6.42658 12.2753 18.4024
rtibia -2.61059
rfoot -17.3243 -22.685
rtoes 5.60245
lfemur 4.07566 -1.88078 -13.4738
ltibia -0.899221
lfoot -8.05539 -2.62368
ltoes 24.5347
9
root 6.24739 18.1839 4.05149 3.31537 -0.879536 0.540275
lowerback -8.08629 1.465 1.43613
upperback -2.17031 1.86868 -1.38701
thorax 2.37824 0.936452 -2.05136
lowerneck 2.85494 -2.47786 -3.78737
upperneck 3.617 -3.55179 6.58365
head 0.848554 -1.78925 2.75137
rclavicle -2.08724e-015 1.23246e-014
rhumerus -35.6538 -3.44015 -88.7625
rradius 24.7131
rwrist 6.82187
rhand -6.25418 -38.2949
rfingers 7.12502
rthumb 19.588 -67.3281
lclavicle -2.08724e-015 1.23246e-014
lhumerus -29.7828 -5.66429 90.2032
lradius 21.8033
lwrist 6.0861
lhand 5.22069 -15.4903
lfingers 7.12502
lthumb 30.5805 11.9903
rfemur 6.49409 11.9637 18.3616
rtibia -2.55391
rfoot -17.0412 -22.6037
rtoes 4.08489
lfemur 4.36865 -2.2332 -13.598
ltibia -1.26621
lfoot -8.07206 -2.0692
ltoes 24.9564
10
root 6.25917 18.1869 4.06702 3.26482 -0.774923 0.606431
lowerback -8.02089 1.42272 1.4274
upperback -2.25656 1.81348 -1.38909
thorax 2.25006 0.907143 -2.0569
lowerneck 2.81395 -2.48648 -3.89058
upperneck 3.7635 -3.57557 6.72434
head 0.909148 -1.79966 2.81699
rclavicle -8.22472e-015 1.45113e-014
rhumerus -36.1476 -3.54225 -88.7116
rradius 24.547
rwrist 6.90964
rhand -6.26617 -38.5616
rfingers 7.12502
rthumb 19.5765 -67.5959
lclavicle -8.22472e-015 1.45113e-014
lhumerus -30.1932 -5.53132 90.2171
lradius 21.1936
lwrist 6.01164
lhand 5.69132 -15.2001
lfingers 7.12502
lthumb 31.0291 12.1958
rfemur 6.61232 11.7525 18.2238
rtibia -2.57547
rfoot -17.0043 -22.5115
rtoes 3.60682
lfemur 4.69032 -2.47032 -13.8091
ltibia -1.68274
lfoot -8.05393 -1.70947
ltoes 24.5141
11
root 6.26743 18.1889 4.08316 3.24478 -0.675533 0.751811
lowerback -7.98217 1.39811 1.28346
upperback -2.35178 1.79259 -1.40834
thorax 2.12561 0.894632 -2.00005
lowerneck 2.91936 -2.48011 -4.00923
upperneck 3.71859 -3.57733 6.99141
head 0.885442 -1.80298 2.9314
rclavicle -1.89342e-014 1.27222e-014
rhumerus -36.6813 -4.00401 -88.4876
rradius 24.388
rwrist 7.05108
rhand -5.9634 -38.8292
rfingers 7.12502
rthumb 19.8675 -67.8337
lclavicle -1.89342e-014 1.27222e-014
lhumerus -30.5207 -5.35764 90.2458
lradius 20.3959
lwrist 5.80734
lhand 5.80813 -15.0146
lfingers 7.12502
lthumb 31.1405 12.36
rfemur 6.70516 11.6887 18.0174
rtibia -2.59381
rfoot -17.2276 -22.4351
rtoes 4.52283
lfemur 4.91179 -2.55524 -14.0565
ltibia -1.9741
lfoot -8.00379 -1.62515
ltoes 24.0261
